# xmcd
#
# Track frame offsets: 
#        150
#        17055
#        38232
#        54095
#        71997
#        91897
#        119290
#        138602
#        161957
#        188375
#        205195
#        224492
#        243792
#        262272
#        280255
#        299090
#        325797
#
# Disc length: 4654 seconds
#
# Revision: 0
# Processed by: cddbd v1.4PL0 Copyright (c) Steve Scherf et al.
# Submitted via: ExactAudioCopy v0.90b4
#
DISCID=09122c11
DTITLE=blackstreet - greatest remix+1
DYEAR=2003
DGENRE=R&B
TTITLE0=take me there
TTITLE1=booti call-K.C.Miami mix
TTITLE2=baby be mine
TTITLE3=i like thr way you work
TTITLE4=i like it
TTITLE5=u blow my mind
TTITLE6=no diggity
TTITLE7=fix
TTITLE8=happy song
TTITLE9=think about you-all i do
TTITLE10=think about you
TTITLE11=tonight's the night
TTITLE12=joy
TTITLE13=booti call
TTITLE14=i like the way you work-ballad mix
TTITLE15=don't leave me
TTITLE16=before i let you go
EXTD=
EXTT0=
EXTT1=
EXTT2=
EXTT3=
EXTT4=
EXTT5=
EXTT6=
EXTT7=
EXTT8=
EXTT9=
EXTT10=
EXTT11=
EXTT12=
EXTT13=
EXTT14=
EXTT15=
EXTT16=
PLAYORDER=
